<svg width="27" height="27" viewBox="0 0 27 27" fill="none" xmlns="http://www.w3.org/2000/svg">
<path d="M5.08227 22.7338C5.08227 22.9162 5.00981 23.0911 4.88083 23.2201C4.75186 23.349 4.57693 23.4215 4.39452 23.4215C4.21212 23.4215 4.03719 23.349 3.90821 23.2201C3.77923 23.0911 3.70677 22.9162 3.70677 22.7338V4.30211C3.70677 4.11971 3.77923 3.94478 3.90821 3.8158C4.03719 3.68682 4.21212 3.61437 4.39452 3.61437C4.57693 3.61437 4.75186 3.68682 4.88083 3.8158C5.00981 3.94478 5.08227 4.11971 5.08227 4.30211V22.7338ZM23.5139 21.6295V5.40581C23.5139 3.96704 21.9013 3.11699 20.7145 3.93128L8.88304 12.0429C7.84702 12.7526 7.84702 14.2822 8.88304 14.9919L20.7145 23.1046C21.9018 23.9178 23.5139 23.0683 23.5139 21.6295ZM21.4925 21.9695L9.66102 13.858C9.60576 13.8201 9.56056 13.7693 9.52933 13.71C9.49809 13.6507 9.48177 13.5847 9.48177 13.5177C9.48177 13.4506 9.49809 13.3846 9.52933 13.3254C9.56056 13.2661 9.60576 13.2153 9.66102 13.1774L21.4925 5.06524C21.5544 5.02278 21.6268 4.99803 21.7018 4.99367C21.7768 4.9893 21.8515 5.00549 21.918 5.04047C21.9844 5.07546 22.0401 5.12792 22.0789 5.1922C22.1178 5.25649 22.1384 5.33015 22.1384 5.40526V21.6295C22.1384 21.7046 22.1178 21.7783 22.0789 21.8426C22.0401 21.9069 21.9844 21.9593 21.918 21.9943C21.8515 22.0293 21.7768 22.0455 21.7018 22.0411C21.6268 22.0367 21.5544 22.012 21.4925 21.9695Z" fill="#00E5FF"/>
</svg>
