<svg width="27" height="27" viewBox="0 0 27 27" fill="none" xmlns="http://www.w3.org/2000/svg">
<path d="M22.3142 4.30201C22.3142 4.1196 22.3867 3.94467 22.5156 3.81569C22.6446 3.68672 22.8196 3.61426 23.002 3.61426C23.1844 3.61426 23.3593 3.68672 23.4883 3.81569C23.6173 3.94467 23.6897 4.1196 23.6897 4.30201V22.7337C23.6897 22.9161 23.6173 23.091 23.4883 23.22C23.3593 23.3489 23.1844 23.4214 23.002 23.4214C22.8196 23.4214 22.6446 23.3489 22.5156 23.22C22.3867 23.091 22.3142 22.9161 22.3142 22.7337V4.30201ZM3.88257 5.40625V21.63C3.88257 23.0687 5.4952 23.9188 6.68198 23.1045L18.5134 14.9929C19.5495 14.2832 19.5495 12.7536 18.5134 12.0438L6.68198 3.93117C5.49465 3.11798 3.88257 3.96749 3.88257 5.40625ZM5.904 5.06623L17.7355 13.1778C17.7907 13.2157 17.8359 13.2665 17.8672 13.3258C17.8984 13.3851 17.9147 13.4511 17.9147 13.5181C17.9147 13.5851 17.8984 13.6511 17.8672 13.7104C17.8359 13.7697 17.7907 13.8205 17.7355 13.8584L5.904 21.9705C5.84204 22.013 5.76967 22.0377 5.69469 22.0421C5.61971 22.0465 5.54496 22.0303 5.4785 21.9953C5.41204 21.9603 5.35638 21.9078 5.31754 21.8436C5.27869 21.7793 5.25813 21.7056 5.25806 21.6305V5.40625C5.25813 5.33115 5.27869 5.25748 5.31754 5.1932C5.35638 5.12891 5.41204 5.07645 5.4785 5.04146C5.54496 5.00648 5.61971 4.99029 5.69469 4.99466C5.76967 4.99902 5.84204 5.02377 5.904 5.06623Z" fill="#00E5FF"/>
</svg>
