<svg width="28" height="30" viewBox="0 0 28 30" fill="none" xmlns="http://www.w3.org/2000/svg">
<path d="M16.2174 29.6193C21.0736 28.6629 27.3529 25.2268 27.3529 16.3426C27.3529 8.25886 21.3362 2.87482 17.0097 0.401277C16.0481 -0.148738 14.9249 0.573921 14.9249 1.66631V4.45917C14.9249 6.66229 13.9834 10.6835 11.3674 12.3565C10.0313 13.2105 8.58659 11.9317 8.42502 10.3734L8.29142 9.09305C8.13607 7.60495 6.595 6.70201 5.38637 7.60954C3.21303 9.23667 0.943359 12.0937 0.943359 16.341C0.943359 27.2054 9.15983 29.9234 13.2673 29.9234C13.5076 29.9234 13.7582 29.9157 14.0192 29.9004C11.9903 29.7309 8.71087 28.4933 8.71087 24.4904C8.71087 21.3584 11.0333 19.2424 12.7981 18.2111C13.2735 17.9361 13.8281 18.2951 13.8281 18.8375V19.7389C13.8281 20.4264 14.1 21.5035 14.7447 22.2399C15.4748 23.0741 16.5452 22.2002 16.6306 21.1032C16.6586 20.758 17.0128 20.538 17.3173 20.7121C18.3131 21.2851 19.5854 22.5073 19.5854 24.4904C19.5854 27.6194 17.8315 29.0586 16.2174 29.6193Z" fill="#00E5FF"/>
</svg>
